<svg width="38" height="41" viewBox="0 0 38 41" fill="none" xmlns="http://www.w3.org/2000/svg">
<path fill-rule="evenodd" clip-rule="evenodd" d="M12.0922 33.1949C11.35 33.1715 10.6953 32.9527 10.1152 32.6979C9.47128 32.4152 9.13255 32.0745 8.66314 31.7054C8.42731 31.52 8.24405 31.2583 8.06154 31.062C7.97358 30.9674 7.88141 30.829 7.79705 30.7147C7.37253 30.1391 6.99542 29.3725 6.86162 28.5942C6.65493 27.3923 6.63272 25.1768 6.64019 23.9087C6.64963 22.2937 6.67564 20.678 6.69779 19.0631C6.71938 17.4887 6.90916 16.1977 7.47028 14.9187C7.73463 14.3162 8.05944 13.9174 8.49265 13.4735C9.35072 12.5943 10.6665 12.1314 11.8885 11.9566C14.3966 11.598 16.5782 11.8693 19.0185 11.8354C20.6309 11.813 22.2775 11.7423 23.8863 11.7729C25.3273 11.8003 26.8946 11.9963 28.0349 12.5384C30.6627 13.7877 31.0994 16.4382 31.1646 19.2213C31.1835 20.0288 31.1963 20.8376 31.2214 21.6437C31.3652 26.27 31.8458 32.6729 25.7169 33.1814C25.7221 32.4481 25.7442 31.6286 25.5079 30.9812C25.2924 30.3913 24.8752 29.9751 24.0681 30.0455C23.6614 30.081 23.4472 30.1815 23.2006 30.3778C22.2162 31.1618 22.612 32.0453 22.4752 33.2214L20.5679 33.1816C20.5006 31.884 20.7468 31.0749 19.8037 30.3459C19.5281 30.1328 19.3776 30.0638 18.9284 30.0531C17.7067 30.024 17.4308 31.1069 17.3609 32.0595C17.3363 32.3936 17.3816 32.9194 17.3348 33.2049L15.3514 33.2119C15.3327 32.4684 15.4202 31.6632 15.1575 31.0072C14.8945 30.3502 14.4548 30.0186 13.7208 30.0509C13.5532 30.0583 13.3527 30.0898 13.1943 30.1302C13.0754 30.1606 12.9212 30.2863 12.8314 30.3552C11.9097 31.0636 12.1653 31.9828 12.0922 33.1949ZM16.6638 5.49028C13.7909 5.48464 11.0519 5.5366 8.77045 6.73313C8.11201 7.07845 7.25957 7.64391 6.72529 8.12902C6.58483 8.25658 5.97944 8.80043 5.84773 8.97173C5.72167 9.13584 5.52727 9.3246 5.3288 9.58467C5.242 9.69838 5.17298 9.79333 5.08801 9.90995C4.04934 11.3357 3.40489 12.9934 3.20125 14.8632C3.04836 16.2675 2.95972 17.7839 3.04768 19.2165C3.06921 19.5663 3.11003 19.9061 3.16702 20.2413C3.20261 20.4506 3.2956 20.429 3.45997 20.5159C4.0149 20.8095 4.58559 21.3343 4.78481 22.0451C4.98328 22.753 4.74079 23.4032 4.40104 23.8266C4.15591 24.1321 3.57965 24.6108 3.06874 24.7602C3.09203 27.4634 3.35965 29.9594 4.69766 32.2073C5.14724 32.9626 5.27569 32.9889 5.66468 33.5043L6.62403 34.446C6.89055 34.6787 7.38048 35.05 7.67214 35.2546C9.82394 36.7636 12.0211 37.1821 14.7846 37.1834C16.4832 37.1842 18.1954 37.1366 19.8788 37.1508C23.0557 37.1778 26.7598 37.3558 29.5327 35.713C30.2563 35.2843 30.5209 35.0426 31.1289 34.5242C31.344 34.3408 31.9095 33.7686 32.1049 33.5543L32.719 32.7866C33.4201 31.8417 34.0067 30.7126 34.3325 29.4207C34.6611 28.1175 34.7931 26.8268 34.7503 25.4029C34.7315 24.7747 34.8162 24.9466 34.398 24.6496C34.1752 24.4914 33.9633 24.3519 33.7522 24.1863C33.3596 23.8782 33.0618 23.4027 33.0627 22.6634C33.0639 21.8945 33.1676 21.5057 33.6131 21.0471C33.7385 20.918 34.29 20.4981 34.4721 20.3888C34.6824 20.2625 34.5451 20.2635 34.7567 20.1761C34.789 17.4465 34.87 14.4309 33.9167 11.9529C33.1425 9.94099 32.0971 8.82658 30.7229 7.78954C27.88 5.64392 25.5812 5.45401 21.9844 5.47296L16.6638 5.49028Z" fill="black"/>
<path fill-rule="evenodd" clip-rule="evenodd" d="M21.5682 23.7049C21.4419 22.7042 21.8752 21.8441 22.3584 21.3627C23.2419 20.4826 24.5679 19.9834 25.8081 20.3796C26.933 20.739 27.6761 21.9178 27.8046 23.1163C28.0111 25.0426 26.6981 26.3566 24.9882 26.5501C23.9549 26.667 23.1765 26.2396 22.6274 25.7783C22.5531 25.7159 22.5135 25.6552 22.4383 25.5835C22.3896 25.5371 22.3078 25.4418 22.2587 25.3781C21.8822 24.8898 21.6515 24.3646 21.5682 23.7049ZM9.96261 24.1941C9.98964 23.3063 10.2495 22.3559 10.779 21.6693L11.2255 21.1652C11.2699 21.1219 11.3128 21.1007 11.3658 21.0558C11.5739 20.8795 11.8049 20.7257 12.0819 20.5948C13.1139 20.107 14.164 20.1404 15.1924 20.5802C16.0499 20.9469 16.6601 21.7367 16.9881 22.5875C17.1768 23.0768 17.2328 23.643 17.261 24.2128L15.4046 24.1262C15.1981 23.74 15.0379 23.2381 14.8188 22.9004C14.6868 22.6969 14.5926 22.5607 14.3599 22.4546C13.9647 22.2745 13.2228 22.2965 12.8337 22.5002C12.6894 22.5758 12.6794 22.6037 12.5795 22.6998C12.4223 22.8512 11.9197 23.9234 11.8272 24.1559L9.96261 24.1941ZM12.0922 33.1949C12.1653 31.9828 11.9097 31.0636 12.8314 30.3552C12.9212 30.2863 13.0754 30.1606 13.1943 30.1302C13.3527 30.0898 13.5532 30.0583 13.7208 30.0509C14.4548 30.0186 14.8945 30.3502 15.1575 31.0072C15.4202 31.6632 15.3327 32.4684 15.3514 33.2119L17.3348 33.2049C17.3816 32.9194 17.3363 32.3936 17.3609 32.0595C17.4308 31.1069 17.7067 30.024 18.9284 30.0531C19.3776 30.0638 19.5281 30.1328 19.8037 30.3459C20.7468 31.0749 20.5006 31.884 20.5679 33.1816L22.4752 33.2214C22.612 32.0453 22.2162 31.1618 23.2006 30.3778C23.4472 30.1815 23.6614 30.081 24.0681 30.0455C24.8752 29.9751 25.2924 30.3913 25.5079 30.9812C25.7442 31.6286 25.7221 32.4481 25.7169 33.1814C31.8458 32.6729 31.3652 26.27 31.2214 21.6437C31.1963 20.8376 31.1835 20.0288 31.1646 19.2213C31.0994 16.4382 30.6627 13.7877 28.0349 12.5384C26.8946 11.9963 25.3273 11.8003 23.8863 11.7729C22.2775 11.7423 20.6309 11.813 19.0185 11.8354C16.5782 11.8693 14.3966 11.598 11.8885 11.9566C10.6665 12.1314 9.35072 12.5943 8.49265 13.4735C8.05944 13.9174 7.73463 14.3162 7.47028 14.9187C6.90916 16.1977 6.71938 17.4887 6.69779 19.0631C6.67564 20.678 6.64963 22.2937 6.64019 23.9087C6.63272 25.1768 6.65493 27.3923 6.86162 28.5942C6.99542 29.3725 7.37253 30.1391 7.79705 30.7147C7.88141 30.829 7.97358 30.9674 8.06154 31.062C8.24405 31.2583 8.42731 31.52 8.66314 31.7054C9.13255 32.0745 9.47128 32.4152 10.1152 32.6979C10.6953 32.9527 11.35 33.1715 12.0922 33.1949Z" fill="#FDEAED"/>
<path fill-rule="evenodd" clip-rule="evenodd" d="M16.6638 5.49028L21.9844 5.47296C25.5812 5.45401 27.88 5.64392 30.7229 7.78954C32.0971 8.82658 33.1425 9.94099 33.9167 11.9529C34.87 14.4309 34.789 17.4465 34.7567 20.1761C34.5451 20.2635 34.6824 20.2625 34.4721 20.3888C34.29 20.4981 33.7385 20.918 33.6131 21.0471C33.1676 21.5057 33.0639 21.8945 33.0627 22.6634C33.0618 23.4027 33.3596 23.8782 33.7522 24.1863C33.9633 24.3519 34.1752 24.4914 34.398 24.6496C34.8162 24.9466 34.7315 24.7747 34.7503 25.4029C34.7931 26.8268 34.6611 28.1175 34.3325 29.4207C34.0067 30.7126 33.4201 31.8417 32.719 32.7866L32.1049 33.5543C31.9095 33.7686 31.344 34.3408 31.1289 34.5242C30.5209 35.0426 30.2563 35.2843 29.5327 35.713C26.7598 37.3558 23.0557 37.1778 19.8788 37.1508C18.1954 37.1366 16.4832 37.1842 14.7846 37.1834C12.0211 37.1821 9.82394 36.7636 7.67214 35.2546C7.38048 35.05 6.89055 34.6787 6.62403 34.446L5.66468 33.5043C5.27569 32.9889 5.14724 32.9626 4.69766 32.2073C3.35965 29.9594 3.09203 27.4634 3.06874 24.7602C3.57965 24.6108 4.15591 24.1321 4.40104 23.8266C4.74079 23.4032 4.98328 22.753 4.78481 22.0451C4.58559 21.3343 4.0149 20.8095 3.45997 20.5159C3.2956 20.429 3.20261 20.4506 3.16702 20.2413C3.11003 19.9061 3.06921 19.5663 3.04768 19.2165C2.95972 17.7839 3.04836 16.2675 3.20125 14.8632C3.40489 12.9934 4.04934 11.3357 5.08801 9.90995C5.17298 9.79333 5.242 9.69838 5.3288 9.58467C5.52727 9.3246 5.72167 9.13584 5.84773 8.97173C5.97944 8.80043 6.58483 8.25658 6.72529 8.12902C7.25957 7.64391 8.11201 7.07845 8.77045 6.73313C11.0519 5.5366 13.7909 5.48464 16.6638 5.49028ZM29.6874 3.93676C29.7206 3.4611 29.7819 2.95867 29.8326 2.48158C29.8558 2.26307 29.9899 1.15538 29.9642 1.03238L27.0379 1.02252L27.1665 3.80193C26.4968 3.81096 25.8113 3.72036 25.1532 3.66711C24.4708 3.61189 23.8316 3.56773 23.1391 3.56284C20.2409 3.54246 13.245 3.35425 10.7392 3.90015C8.80814 4.32086 7.21949 5.21453 5.74523 6.37859C5.53956 6.54099 5.37158 6.71093 5.17848 6.87605L3.88584 8.27778C3.80949 8.37389 3.73715 8.46945 3.65931 8.57188C2.95475 9.49869 2.19143 10.876 1.8201 12.0542C1.46466 13.1819 1.3695 14.5218 1.25505 15.765C1.02574 18.2567 1.01134 21.5197 1.03844 24.0444C1.07328 27.2933 1.15364 30.1097 2.83086 32.9189C3.48251 34.0105 4.29541 35.0372 5.24063 35.8532C5.92488 36.444 6.25743 36.7061 7.067 37.219C9.66791 38.8673 12.5295 39.0297 15.7349 39.2097C17.1145 39.2872 18.584 39.2389 19.9694 39.219C21.3535 39.1991 22.7503 39.1529 24.1344 39.1081C27.4096 39.0022 29.7633 38.1099 32.0399 36.3418L32.6174 35.8539L33.6583 34.767C34.1557 34.1776 34.5926 33.571 34.9893 32.9058C37.3656 28.9218 36.7492 22.8264 36.7055 17.7275C36.6728 13.9015 36.31 11.3336 34.1692 8.53181C33.897 8.17562 33.2246 7.47785 32.8728 7.15623L32.4717 6.76534C32.4212 6.71637 32.3823 6.68302 32.3301 6.63486L31.5472 5.8462L33.5994 4.86737C33.5037 4.45522 33.1642 3.87909 32.9705 3.52671C32.807 3.22934 32.588 2.90657 32.3893 2.63583C32.3103 2.52831 32.2365 2.47268 32.179 2.37195C32.0266 2.41807 29.8566 3.87563 29.6874 3.93676Z" fill="#F6CBC9"/>
<path fill-rule="evenodd" clip-rule="evenodd" d="M29.6874 3.93676C29.8566 3.87563 32.0266 2.41807 32.179 2.37195C32.2365 2.47268 32.3103 2.52831 32.3893 2.63583C32.588 2.90657 32.807 3.22934 32.9705 3.52671C33.1642 3.87909 33.5037 4.45522 33.5994 4.86737L31.5472 5.8462L32.3301 6.63486C32.3823 6.68302 32.4212 6.71637 32.4717 6.76534L32.8728 7.15623C33.2246 7.47785 33.897 8.17562 34.1692 8.53181C36.31 11.3336 36.6728 13.9015 36.7055 17.7275C36.7492 22.8264 37.3656 28.9218 34.9893 32.9058C34.5926 33.571 34.1557 34.1776 33.6583 34.767L32.6174 35.8539L32.0399 36.3418C29.7633 38.1099 27.4096 39.0022 24.1344 39.1081C22.7503 39.1529 21.3535 39.1991 19.9694 39.219C18.584 39.2389 17.1145 39.2872 15.7349 39.2097C12.5295 39.0297 9.66791 38.8673 7.067 37.219C6.25743 36.7061 5.92488 36.444 5.24063 35.8532C4.29541 35.0372 3.48251 34.0105 2.83086 32.9189C1.15364 30.1097 1.07328 27.2933 1.03844 24.0444C1.01134 21.5197 1.02574 18.2567 1.25505 15.765C1.3695 14.5218 1.46466 13.1819 1.8201 12.0542C2.19143 10.876 2.95475 9.49869 3.65931 8.57188C3.73715 8.46945 3.80949 8.37389 3.88584 8.27778L5.17848 6.87605C5.37158 6.71093 5.53956 6.54099 5.74523 6.37859C7.21949 5.21453 8.80814 4.32086 10.7392 3.90015C13.245 3.35425 20.2409 3.54246 23.1391 3.56284C23.8316 3.56773 24.4708 3.61189 25.1532 3.66711C25.8113 3.72036 26.4968 3.81096 27.1665 3.80193L27.0379 1.02252L29.9642 1.03238C29.9899 1.15538 29.8558 2.26307 29.8326 2.48158C29.7819 2.95867 29.7206 3.4611 29.6874 3.93676ZM0 24.1088V23.9471L0.0227515 20.3995C0.0323286 20.2223 0.0226155 20.014 0.0226155 19.8333C0.0226155 19.6242 0.0465254 19.4709 0.0457783 19.2905C0.0450311 19.1087 0.032534 18.9076 0.0583447 18.7371C0.0849025 18.5617 0.0509415 18.3655 0.0774314 18.1902C0.103921 18.0153 0.0771604 17.8251 0.103582 17.6503L0.135846 17.1166C0.210357 15.6687 0.326231 14.2831 0.546302 12.9761C0.728675 11.893 1.20903 10.6197 1.75872 9.63771C2.11532 9.00066 2.83401 7.85963 3.37916 7.27339C3.47086 7.17476 3.55882 7.0739 3.64175 6.96998L4.20551 6.37905C4.7313 5.85237 5.31632 5.40462 5.91268 4.96177C6.75024 4.3398 7.707 3.85924 8.67789 3.47052C9.39774 3.18232 10.1187 2.97869 10.8846 2.82437C11.3888 2.72276 11.8838 2.71447 12.3976 2.63928L13.1989 2.58025C13.2949 2.5774 13.3989 2.58623 13.4941 2.58114C13.5992 2.57543 13.6337 2.5573 13.7652 2.55784L15.1241 2.51308C15.8943 2.51315 16.5922 2.49046 17.3656 2.49046L19.0638 2.49032C19.259 2.4893 19.3768 2.51342 19.5843 2.51315L21.555 2.51226C21.677 2.51376 21.6884 2.53312 21.8024 2.53651C22.1721 2.54759 22.5631 2.53577 22.9352 2.53577C23.6598 2.53577 23.8588 2.54697 24.5654 2.58107C24.8998 2.59724 25.2468 2.65728 25.5841 2.67175C25.7419 2.67854 25.9243 2.71692 26.0824 2.71692C26.0824 2.51389 25.9984 1.18655 26.016 1.08833C26.0338 0.989911 26.6731 0.370042 26.8126 0.232158C26.8708 0.174696 26.9627 0 27.0559 0H29.954C30.0225 0 30.2674 0.323249 30.3328 0.390968L30.6881 0.782878C30.751 0.864317 30.8115 0.904397 30.8756 0.980199C31.1358 1.28769 30.9276 1.3012 30.9276 1.92446C31.077 1.8454 31.174 1.76865 31.3197 1.68266C31.4892 1.58261 31.5388 1.48724 31.7458 1.51197C31.9487 1.53615 32.1188 1.54294 32.3249 1.56868C32.4053 1.57873 32.8113 1.61134 32.8689 1.63593C32.9515 1.67118 32.8875 1.63606 32.9503 1.71295L33.4272 2.3229C33.7633 2.83028 34.1032 3.36096 34.3368 3.92642C34.3741 4.01676 34.4029 4.07007 34.434 4.14615C34.6112 4.57943 34.6231 4.4933 34.4917 4.80942C34.3667 5.11004 34.2308 5.37229 34.1105 5.67346C34.0326 5.8684 33.9307 5.85598 33.7501 5.94706C33.6287 6.00833 33.4563 6.10566 33.3274 6.13568C33.3619 6.265 33.5751 6.40669 33.6725 6.49248C33.789 6.59504 33.8999 6.71954 34.0122 6.83189C34.1346 6.95428 34.2422 7.0597 34.3636 7.18237C34.4304 7.24981 34.452 7.2956 34.5213 7.36427L34.7696 7.63677C35.6202 8.64081 36.2579 9.75923 36.7559 10.9937L37.1038 12.0268C37.651 14.0456 37.7423 15.9851 37.7423 18.2939C37.7423 19.2055 37.7876 20.1058 37.7876 21.0108C37.7876 21.2685 37.8108 21.4485 37.8102 21.69C37.8097 21.9163 37.8107 22.1429 37.8102 22.3692C37.8096 22.6107 37.8328 22.7908 37.8328 23.0485C37.8328 26.307 37.6518 29.2714 36.6849 31.7493L36.4213 32.3687C36.3876 32.4383 36.3698 32.495 36.3389 32.558L35.2789 34.3507C34.9339 34.857 34.5397 35.3297 34.1251 35.778C34.0715 35.836 34.0595 35.8669 34.0012 35.9259C33.7156 36.2146 33.4329 36.5058 33.1289 36.7743C32.5077 37.3231 31.8331 37.8023 31.1212 38.2307C30.5333 38.5845 29.8524 38.9259 29.2032 39.1654C28.3193 39.4914 27.494 39.7451 26.5252 39.9062C26.0905 39.9785 25.4269 40.0958 24.9953 40.097C24.8632 40.0973 24.8405 40.1169 24.7244 40.1203C24.6371 40.1229 24.5392 40.1137 24.4531 40.1208L23.3426 40.1649C22.9466 40.1644 22.6305 40.1884 22.2331 40.1875L20.0144 40.2556C19.2366 40.2527 18.5311 40.2781 17.7503 40.2781C15.6131 40.2781 13.6831 40.1897 11.6211 39.8867C9.84855 39.6262 8.27484 39.129 6.75643 38.2309C6.36322 37.9983 5.46616 37.413 5.14509 37.1253C4.95158 36.9519 4.73877 36.8099 4.55586 36.6278C4.45581 36.5282 4.37246 36.4668 4.27323 36.367C4.08726 36.1799 3.91738 36.0091 3.72978 35.8237L2.51294 34.3236C2.14595 33.7658 1.80892 33.2325 1.50164 32.618C1.19462 32.0039 1.09539 31.6756 0.860173 31.0859C0.751496 30.8135 0.686021 30.5399 0.603087 30.2562C0.385259 29.5108 0.287788 28.7356 0.187262 27.9552C0.15235 27.6842 0.157445 27.422 0.132314 27.195L0.0902698 26.6937C0.0855831 26.6065 0.0963138 26.5098 0.0891819 26.4231L0.0224132 24.8597C0.022617 24.6865 0.0317188 24.4861 0.0225492 24.3162C0.0176588 24.226 0.00353199 24.1988 0 24.1088Z" fill="black"/>
<path fill-rule="evenodd" clip-rule="evenodd" d="M21.5682 23.7049C21.6515 24.3646 21.8822 24.8898 22.2587 25.3781C22.3078 25.4418 22.3896 25.5371 22.4383 25.5835C22.5135 25.6552 22.5531 25.7159 22.6274 25.7783C23.1765 26.2396 23.9549 26.667 24.9882 26.5501C26.6981 26.3566 28.0111 25.0426 27.8046 23.1163C27.6761 21.9178 26.933 20.739 25.8081 20.3796C24.5679 19.9834 23.2419 20.4826 22.3584 21.3627C21.8752 21.8441 21.4419 22.7042 21.5682 23.7049Z" fill="#292929"/>
<path fill-rule="evenodd" clip-rule="evenodd" d="M9.96261 24.1941L11.8272 24.1559C11.9197 23.9234 12.4223 22.8512 12.5795 22.6998C12.6794 22.6037 12.6894 22.5758 12.8337 22.5002C13.2228 22.2965 13.9647 22.2745 14.3599 22.4546C14.5926 22.5607 14.6868 22.6969 14.8188 22.9004C15.0379 23.2381 15.1981 23.74 15.4046 24.1262L17.261 24.2128C17.2328 23.643 17.1768 23.0768 16.9881 22.5875C16.6601 21.7367 16.0499 20.9469 15.1924 20.5802C14.164 20.1404 13.1139 20.107 12.0819 20.5948C11.8049 20.7257 11.5739 20.8795 11.3658 21.0558C11.3128 21.1007 11.2699 21.1219 11.2255 21.1652L10.779 21.6693C10.2495 22.3559 9.98964 23.3063 9.96261 24.1941Z" fill="#292929"/>
</svg>
